<svg xmlns="http://www.w3.org/2000/svg" xmlns:xlink="http://www.w3.org/1999/xlink" width="510" zoomAndPan="magnify" viewBox="0 0 382.5 153.750002" height="205" preserveAspectRatio="xMidYMid meet" version="1.0"><defs><g/><clipPath id="cd1ebbefd6"><path d="M 65.226562 66 L 203.183594 66 L 203.183594 119.171875 L 65.226562 119.171875 Z M 65.226562 66 " clip-rule="nonzero"/></clipPath><clipPath id="83d04d31ef"><path d="M 65.226562 29.203125 L 203.183594 29.203125 L 203.183594 97 L 65.226562 97 Z M 65.226562 29.203125 " clip-rule="nonzero"/></clipPath></defs><g clip-path="url(#cd1ebbefd6)"><path fill="#00bfe7" d="M 150.3125 89.785156 L 157.625 78.9375 L 138.265625 97.359375 L 150.308594 89.78125 Z M 199.445312 119.171875 L 69.054688 119.171875 C 68.277344 116.820312 67.621094 114.414062 67.101562 111.960938 L 66.75 112.242188 C 65.953125 108.484375 65.460938 104.613281 65.308594 100.652344 C 65.292969 100.273438 65.28125 99.894531 65.269531 99.515625 L 90.023438 85.25 L 96.351562 85.445312 L 120.859375 66.515625 L 145.964844 86.035156 L 159.601562 74.796875 L 177.984375 89.390625 L 183.320312 89.390625 L 203.070312 101.214844 C 203.054688 101.605469 203.03125 101.992188 203.007812 102.382812 C 202.761719 106.210938 202.203125 109.957031 201.351562 113.59375 L 201.03125 113.59375 C 200.582031 115.484375 200.050781 117.347656 199.445312 119.175781 Z M 98.324219 91.359375 L 118.289062 72.429688 L 99.3125 87.617188 L 93.382812 87.8125 L 74.011719 98.460938 L 93.78125 90.769531 L 98.328125 91.363281 Z M 132.285156 84.460938 L 142.070312 88.277344 L 124.019531 72.820312 Z M 163.355469 81.105469 L 176.796875 93.332031 L 181.34375 93.527344 L 194.585938 98.851562 L 181.46875 91.484375 L 176.722656 91.1875 Z M 163.355469 81.105469 " fill-opacity="1" fill-rule="evenodd"/></g><g clip-path="url(#83d04d31ef)"><path fill="#fdfce9" d="M 95.730469 40.835938 L 95.957031 40.835938 C 106.894531 33.488281 120.070312 29.203125 134.25 29.203125 C 148.425781 29.203125 161.601562 33.488281 172.542969 40.835938 L 172.671875 40.835938 C 190.78125 53.003906 202.785156 73.527344 203.140625 96.863281 L 184.367188 85.625 L 179.300781 85.625 L 159.554688 69.949219 L 145.894531 81.210938 L 120.867188 61.746094 L 95.113281 81.640625 L 89.066406 81.453125 L 65.3125 95.148438 C 66.214844 72.519531 78.066406 52.710938 95.730469 40.839844 Z M 179.046875 50.742188 C 181.007812 52.597656 182.84375 54.5625 184.546875 56.621094 L 172.050781 56.621094 L 172.050781 50.742188 Z M 164.257812 50.742188 L 149.414062 50.742188 L 149.414062 56.621094 L 164.257812 56.621094 Z M 141.621094 50.742188 L 126.777344 50.742188 L 126.777344 56.621094 L 141.621094 56.621094 Z M 118.984375 50.742188 L 104.140625 50.742188 L 104.140625 56.621094 L 118.984375 56.621094 Z M 83.855469 56.621094 C 85.558594 54.558594 87.394531 52.59375 89.355469 50.742188 L 96.351562 50.742188 L 96.351562 56.621094 Z M 83.855469 56.621094 " fill-opacity="1" fill-rule="evenodd"/></g><g fill="#00bfe7" fill-opacity="1"><g transform="translate(226.47432, 66.077012)"><g><path d="M 2.328125 0 L 2.328125 -31.03125 L 8.203125 -31.03125 L 12.609375 -8.359375 L 16.75 -31.03125 L 22.65625 -31.03125 L 22.65625 0 L 18.4375 0 L 18.4375 -11.5625 L 18.625 -22.1875 L 14.4375 -0.140625 L 10.6875 -0.140625 L 6.328125 -22.1875 L 6.5 -11.5625 L 6.5 0 Z M 2.328125 0 "/></g></g></g><g fill="#00bfe7" fill-opacity="1"><g transform="translate(251.473278, 66.077012)"><g><path d="M 10.65625 -9.328125 L 8.5625 -24.90625 L 8.5 -24.90625 L 6.59375 -9.328125 Z M 0.921875 0 L 5.34375 -31.03125 L 11.578125 -31.03125 L 16.296875 0 L 11.890625 0 L 11.140625 -5.53125 L 6.140625 -5.53125 L 5.46875 0 Z M 0.921875 0 "/></g></g></g><g fill="#00bfe7" fill-opacity="1"><g transform="translate(268.679895, 66.077012)"><g><path d="M 5.359375 0 L 5.359375 -12.390625 L 0.15625 -31.03125 L 4.671875 -31.03125 L 7.734375 -19.4375 L 7.8125 -19.4375 L 10.546875 -31.03125 L 15.046875 -31.03125 L 10.078125 -12.390625 L 10.078125 0 Z M 5.359375 0 "/></g></g></g><g fill="#00bfe7" fill-opacity="1"><g transform="translate(283.876723, 66.077012)"><g><path d="M 10.65625 -9.328125 L 8.5625 -24.90625 L 8.5 -24.90625 L 6.59375 -9.328125 Z M 0.921875 0 L 5.34375 -31.03125 L 11.578125 -31.03125 L 16.296875 0 L 11.890625 0 L 11.140625 -5.53125 L 6.140625 -5.53125 L 5.46875 0 Z M 0.921875 0 "/></g></g></g><g fill="#00bfe7" fill-opacity="1"><g transform="translate(301.08334, 66.077012)"><g><path d="M 8.5625 -14.578125 L 7.046875 -14.65625 L 7.046875 0 L 2.328125 0 L 2.328125 -31.03125 L 10.140625 -31.03125 C 11.765625 -31.03125 12.972656 -30.703125 13.765625 -30.046875 C 14.566406 -29.398438 15.09375 -28.488281 15.34375 -27.3125 C 15.601562 -26.144531 15.734375 -24.617188 15.734375 -22.734375 C 15.734375 -20.847656 15.53125 -19.410156 15.125 -18.421875 C 14.726562 -17.429688 13.988281 -16.769531 12.90625 -16.4375 C 13.976562 -16.25 14.722656 -15.523438 15.140625 -14.265625 C 15.566406 -13.003906 15.78125 -10.382812 15.78125 -6.40625 C 15.78125 -2.425781 15.835938 -0.289062 15.953125 0 L 11.234375 0 C 11.117188 -0.238281 11.0625 -3.945312 11.0625 -11.125 C 11.0625 -12.5 10.894531 -13.410156 10.5625 -13.859375 C 10.226562 -14.316406 9.5625 -14.554688 8.5625 -14.578125 Z M 7.0625 -18.3125 L 8.953125 -18.3125 C 9.554688 -18.3125 10 -18.445312 10.28125 -18.71875 C 10.570312 -18.988281 10.773438 -19.453125 10.890625 -20.109375 C 11.003906 -20.773438 11.0625 -21.78125 11.0625 -23.125 L 11.0625 -23.328125 C 11.0625 -25.003906 10.914062 -26.101562 10.625 -26.625 C 10.34375 -27.144531 9.691406 -27.40625 8.671875 -27.40625 L 7.0625 -27.40625 Z M 7.0625 -18.3125 "/></g></g></g><g fill="#00bfe7" fill-opacity="1"><g transform="translate(318.889368, 66.077012)"><g><path d="M 2.5 0 L 2.5 -31.03125 L 7.234375 -31.03125 L 7.234375 0 Z M 2.5 0 "/></g></g></g><g fill="#fffdfa" fill-opacity="1"><g transform="translate(214.414683, 92.063905)"><g><path d="M 4.765625 0 L 0.96875 0 L 0.96875 -15.625 L 5.625 -15.625 L 8.15625 -7.28125 L 10.6875 -15.625 L 15.34375 -15.625 L 15.34375 0 L 11.5625 0 L 11.5625 -9.9375 L 9.609375 -3.390625 L 6.6875 -3.390625 L 4.765625 -9.890625 Z M 4.765625 0 "/></g></g></g><g fill="#fffdfa" fill-opacity="1"><g transform="translate(231.935394, 92.063905)"><g><path d="M 7.46875 -15.625 L 11.734375 -15.625 L 11.734375 -3.015625 C 11.734375 -1.003906 10.539062 0 8.15625 0 L 4.546875 0 C 2.160156 0 0.96875 -1.003906 0.96875 -3.015625 L 0.96875 -15.625 L 5.234375 -15.625 L 5.234375 -3.578125 C 5.234375 -3.222656 5.4375 -3.046875 5.84375 -3.046875 L 6.859375 -3.046875 C 7.265625 -3.046875 7.46875 -3.222656 7.46875 -3.578125 Z M 7.46875 -15.625 "/></g></g></g><g fill="#fffdfa" fill-opacity="1"><g transform="translate(245.854783, 92.063905)"><g><path d="M 5.234375 -3.046875 L 10.078125 -3.046875 L 10.078125 0 L 0.96875 0 L 0.96875 -15.625 L 5.234375 -15.625 Z M 5.234375 -3.046875 "/></g></g></g><g fill="#fffdfa" fill-opacity="1"><g transform="translate(257.146178, 92.063905)"><g><path d="M 10.390625 -15.625 L 10.390625 -12.578125 L 7.375 -12.578125 L 7.375 0 L 3.109375 0 L 3.109375 -12.578125 L 0.125 -12.578125 L 0.125 -15.625 Z M 10.390625 -15.625 "/></g></g></g><g fill="#fffdfa" fill-opacity="1"><g transform="translate(268.87557, 92.063905)"><g><path d="M 0.96875 -15.625 L 5.234375 -15.625 L 5.234375 0 L 0.96875 0 Z M 0.96875 -15.625 "/></g></g></g><g fill="#fffdfa" fill-opacity="1"><g transform="translate(276.297979, 92.063905)"><g><path d="M 4.765625 0 L 0.96875 0 L 0.96875 -15.625 L 5.625 -15.625 L 8.15625 -7.28125 L 10.6875 -15.625 L 15.34375 -15.625 L 15.34375 0 L 11.5625 0 L 11.5625 -9.9375 L 9.609375 -3.390625 L 6.6875 -3.390625 L 4.765625 -9.890625 Z M 4.765625 0 "/></g></g></g><g fill="#fffdfa" fill-opacity="1"><g transform="translate(293.818692, 92.063905)"><g><path d="M 5.234375 -3.046875 L 10.5625 -3.046875 L 10.5625 0 L 0.96875 0 L 0.96875 -15.625 L 10.34375 -15.625 L 10.34375 -12.578125 L 5.234375 -12.578125 L 5.234375 -9.390625 L 9.640625 -9.390625 L 9.640625 -6.359375 L 5.234375 -6.359375 Z M 5.234375 -3.046875 "/></g></g></g><g fill="#fffdfa" fill-opacity="1"><g transform="translate(305.961744, 92.063905)"><g><path d="M 1.21875 -15.625 L 8.40625 -15.625 C 10.789062 -15.625 11.984375 -14.617188 11.984375 -12.609375 L 11.984375 -3.015625 C 11.984375 -1.003906 10.789062 0 8.40625 0 L 1.21875 0 Z M 7.71875 -3.328125 L 7.71875 -12.296875 C 7.71875 -12.648438 7.515625 -12.828125 7.109375 -12.828125 L 5.484375 -12.828125 L 5.484375 -2.796875 L 7.109375 -2.796875 C 7.515625 -2.796875 7.71875 -2.972656 7.71875 -3.328125 Z M 7.71875 -3.328125 "/></g></g></g><g fill="#fffdfa" fill-opacity="1"><g transform="translate(320.051467, 92.063905)"><g><path d="M 0.96875 -15.625 L 5.234375 -15.625 L 5.234375 0 L 0.96875 0 Z M 0.96875 -15.625 "/></g></g></g><g fill="#fffdfa" fill-opacity="1"><g transform="translate(327.473876, 92.063905)"><g><path d="M 8.9375 0 L 8.453125 -2.34375 L 4.703125 -2.34375 L 4.1875 0 L 0 0 L 4.015625 -15.625 L 9.203125 -15.625 L 13.21875 0 Z M 5.359375 -5.359375 L 7.796875 -5.359375 L 6.59375 -10.984375 Z M 5.359375 -5.359375 "/></g></g></g><g fill="#fffdfa" fill-opacity="1"><g transform="translate(228.55186, 118.289393)"><g><path d="M 6.96875 -3.578125 L 6.96875 -5.796875 C 6.96875 -6.148438 6.765625 -6.328125 6.359375 -6.328125 L 4.015625 -6.328125 C 2.816406 -6.328125 1.96875 -6.585938 1.46875 -7.109375 C 0.976562 -7.640625 0.734375 -8.398438 0.734375 -9.390625 L 0.734375 -12.609375 C 0.734375 -14.617188 1.914062 -15.625 4.28125 -15.625 L 7.625 -15.625 C 9.988281 -15.625 11.171875 -14.617188 11.171875 -12.609375 L 11.171875 -10.734375 L 6.90625 -10.734375 L 6.90625 -12.046875 C 6.90625 -12.398438 6.707031 -12.578125 6.3125 -12.578125 L 5.59375 -12.578125 C 5.1875 -12.578125 4.984375 -12.398438 4.984375 -12.046875 L 4.984375 -9.734375 C 4.984375 -9.378906 5.1875 -9.203125 5.59375 -9.203125 L 7.890625 -9.203125 C 9.085938 -9.203125 9.941406 -8.945312 10.453125 -8.4375 C 10.960938 -7.9375 11.21875 -7.203125 11.21875 -6.234375 L 11.21875 -3.015625 C 11.21875 -1.003906 10.035156 0 7.671875 0 L 4.359375 0 C 1.972656 0 0.78125 -1.003906 0.78125 -3.015625 L 0.78125 -4.890625 L 5.046875 -4.890625 L 5.046875 -3.578125 C 5.046875 -3.222656 5.242188 -3.046875 5.640625 -3.046875 L 6.359375 -3.046875 C 6.765625 -3.046875 6.96875 -3.222656 6.96875 -3.578125 Z M 6.96875 -3.578125 "/></g></g></g><g fill="#fffdfa" fill-opacity="1"><g transform="translate(241.716906, 118.289393)"><g><path d="M 5.234375 -3.046875 L 10.5625 -3.046875 L 10.5625 0 L 0.96875 0 L 0.96875 -15.625 L 10.34375 -15.625 L 10.34375 -12.578125 L 5.234375 -12.578125 L 5.234375 -9.390625 L 9.640625 -9.390625 L 9.640625 -6.359375 L 5.234375 -6.359375 Z M 5.234375 -3.046875 "/></g></g></g><g fill="#fffdfa" fill-opacity="1"><g transform="translate(253.859955, 118.289393)"><g><path d="M 5.234375 -5.546875 L 5.234375 0 L 0.96875 0 L 0.96875 -15.625 L 8.203125 -15.625 C 10.585938 -15.625 11.78125 -14.617188 11.78125 -12.609375 L 11.78125 -8.5625 C 11.78125 -7.019531 11.082031 -6.070312 9.6875 -5.71875 L 12.5625 0 L 7.984375 0 L 5.5 -5.546875 Z M 6.90625 -12.578125 L 5.234375 -12.578125 L 5.234375 -8.453125 L 6.90625 -8.453125 C 7.3125 -8.453125 7.515625 -8.628906 7.515625 -8.984375 L 7.515625 -12.046875 C 7.515625 -12.398438 7.3125 -12.578125 6.90625 -12.578125 Z M 6.90625 -12.578125 "/></g></g></g><g fill="#fffdfa" fill-opacity="1"><g transform="translate(267.584673, 118.289393)"><g><path d="M 8.375 -15.625 L 12.8125 -15.625 L 8.953125 0 L 4.015625 0 L 0.171875 -15.625 L 4.59375 -15.625 L 6.46875 -5.1875 Z M 8.375 -15.625 "/></g></g></g><g fill="#fffdfa" fill-opacity="1"><g transform="translate(281.771728, 118.289393)"><g><path d="M 0.96875 -15.625 L 5.234375 -15.625 L 5.234375 0 L 0.96875 0 Z M 0.96875 -15.625 "/></g></g></g><g fill="#fffdfa" fill-opacity="1"><g transform="translate(289.194137, 118.289393)"><g><path d="M 11.4375 -9.78125 L 7.1875 -9.78125 L 7.1875 -12.296875 C 7.1875 -12.648438 6.984375 -12.828125 6.578125 -12.828125 L 5.71875 -12.828125 C 5.3125 -12.828125 5.109375 -12.648438 5.109375 -12.296875 L 5.109375 -3.328125 C 5.109375 -2.972656 5.3125 -2.796875 5.71875 -2.796875 L 6.578125 -2.796875 C 6.984375 -2.796875 7.1875 -2.972656 7.1875 -3.328125 L 7.1875 -5.75 L 11.4375 -5.75 L 11.4375 -3.015625 C 11.4375 -1.003906 10.242188 0 7.859375 0 L 4.4375 0 C 2.050781 0 0.859375 -1.003906 0.859375 -3.015625 L 0.859375 -12.609375 C 0.859375 -14.617188 2.050781 -15.625 4.4375 -15.625 L 7.859375 -15.625 C 10.242188 -15.625 11.4375 -14.617188 11.4375 -12.609375 Z M 11.4375 -9.78125 "/></g></g></g><g fill="#fffdfa" fill-opacity="1"><g transform="translate(302.45652, 118.289393)"><g><path d="M 5.234375 -3.046875 L 10.5625 -3.046875 L 10.5625 0 L 0.96875 0 L 0.96875 -15.625 L 10.34375 -15.625 L 10.34375 -12.578125 L 5.234375 -12.578125 L 5.234375 -9.390625 L 9.640625 -9.390625 L 9.640625 -6.359375 L 5.234375 -6.359375 Z M 5.234375 -3.046875 "/></g></g></g><g fill="#fffdfa" fill-opacity="1"><g transform="translate(314.599572, 118.289393)"><g><path d="M 6.96875 -3.578125 L 6.96875 -5.796875 C 6.96875 -6.148438 6.765625 -6.328125 6.359375 -6.328125 L 4.015625 -6.328125 C 2.816406 -6.328125 1.96875 -6.585938 1.46875 -7.109375 C 0.976562 -7.640625 0.734375 -8.398438 0.734375 -9.390625 L 0.734375 -12.609375 C 0.734375 -14.617188 1.914062 -15.625 4.28125 -15.625 L 7.625 -15.625 C 9.988281 -15.625 11.171875 -14.617188 11.171875 -12.609375 L 11.171875 -10.734375 L 6.90625 -10.734375 L 6.90625 -12.046875 C 6.90625 -12.398438 6.707031 -12.578125 6.3125 -12.578125 L 5.59375 -12.578125 C 5.1875 -12.578125 4.984375 -12.398438 4.984375 -12.046875 L 4.984375 -9.734375 C 4.984375 -9.378906 5.1875 -9.203125 5.59375 -9.203125 L 7.890625 -9.203125 C 9.085938 -9.203125 9.941406 -8.945312 10.453125 -8.4375 C 10.960938 -7.9375 11.21875 -7.203125 11.21875 -6.234375 L 11.21875 -3.015625 C 11.21875 -1.003906 10.035156 0 7.671875 0 L 4.359375 0 C 1.972656 0 0.78125 -1.003906 0.78125 -3.015625 L 0.78125 -4.890625 L 5.046875 -4.890625 L 5.046875 -3.578125 C 5.046875 -3.222656 5.242188 -3.046875 5.640625 -3.046875 L 6.359375 -3.046875 C 6.765625 -3.046875 6.96875 -3.222656 6.96875 -3.578125 Z M 6.96875 -3.578125 "/></g></g></g></svg>